#N canvas 335 202 493 437 12;
#X obj 373 178 notein;
#N canvas 0 22 450 278 (subpatch) 0;
#X array midi_notes 16 float 2;
#X coords 0 128 16 0 160 127 1 0 0;
#X restore 109 118 graph;
#X obj 323 296 tabwrite midi_notes;
#N canvas 0 22 450 278 (subpatch) 0;
#X array midi_velocity 16 float 2;
#X coords 0 128 16 0 160 32 1 0 0;
#X restore 109 261 graph;
#X obj 333 355 tabwrite midi_velocity;
#X obj 109 260 cnv 24 160 24 empty empty empty 20 12 0 12 #c6ffc7 #404040 0;
#X obj 109 118 cnv 19 160 127 empty empty empty 20 12 0 12 #feffc6 #404040 0;
#X obj 109 269 cnv 24 160 24 empty empty empty 20 12 0 12 #ffc7c6 #404040 0;
#X connect 0 0 2 0;
#X connect 0 1 4 0;
#X connect 0 2 2 1;
#X connect 0 2 4 1;
#X coords 0 -1 1 1 180 200 2 100 100;
