#N canvas 412 151 754 616 12;
#X obj 40 49 hradio 20 1 1 12 empty empty empty 0 -10 0 12 #ffffff #000000 #000000 7;
#X obj 652 74 % 12;
#X obj 40 69 hradio 20 1 1 12 empty empty empty 0 -10 0 12 #ffffff #000000 #000000 0;
#X obj 654 115 % 12;
#X obj 40 89 hradio 20 1 1 12 empty empty empty 0 -10 0 12 #ffffff #000000 #000000 0;
#X obj 656 148 % 12;
#X obj 40 109 hradio 20 1 1 12 empty empty empty 0 -10 0 12 #ffffff #000000 #000000 7;
#X obj 659 196 % 12;
#X obj 40 129 hradio 20 1 1 12 empty empty empty 0 -10 0 12 #ffffff #000000 #000000 0;
#X obj 662 235 % 12;
#X obj 40 149 hradio 20 1 1 12 empty empty empty 0 -10 0 12 #ffffff #000000 #000000 0;
#X obj 663 277 % 12;
#X obj 40 169 hradio 20 1 1 12 empty empty empty 0 -10 0 12 #ffffff #000000 #000000 5;
#X obj 664 325 % 12;
#X obj 40 189 hradio 20 1 1 12 empty empty empty 0 -10 0 12 #ffffff #000000 #000000 11;
#X obj 663 373 % 12;
#X text 41 27 C;
#X text 61 27 C#;
#X text 85 27 D;
#X text 102 27 D#;
#X text 124 27 E;
#X text 144 27 F;
#X text 160 27 F#;
#X text 184 27 G;
#X text 201 27 G#;
#X text 224 27 A;
#X text 241 27 Bb;
#X text 266 27 B;
#X floatatom 97 362 5 0 0 0 - - - 0;
#X obj 37 335 stripnote;
#X floatatom 37 362 4 0 0 0 - - - 0;
#X obj 37 388 bng 20 250 50 0 empty empty empty 17 7 0 10 #dfdfdf #000000 #000000;
#X text 64 389 note on;
#X obj 37 304 notein 1;
#X floatatom 226 362 5 0 0 0 - - - 0;
#X obj 166 335 stripnote;
#X floatatom 166 362 4 0 0 0 - - - 0;
#X obj 166 388 bng 20 250 50 0 empty empty empty 17 7 0 10 #dfdfdf #000000 #000000;
#X text 193 389 note on;
#X floatatom 355 362 5 0 0 0 - - - 0;
#X obj 295 335 stripnote;
#X floatatom 295 362 4 0 0 0 - - - 0;
#X obj 295 388 bng 20 250 50 0 empty empty empty 17 7 0 10 #dfdfdf #000000 #000000;
#X text 322 389 note on;
#X floatatom 496 362 5 0 0 0 - - - 0;
#X obj 436 335 stripnote;
#X floatatom 436 362 4 0 0 0 - - - 0;
#X obj 436 388 bng 20 250 50 0 empty empty empty 17 7 0 10 #dfdfdf #000000 #000000;
#X text 463 389 note on;
#X floatatom 97 522 5 0 0 0 - - - 0;
#X obj 37 495 stripnote;
#X floatatom 37 522 4 0 0 0 - - - 0;
#X obj 37 548 bng 20 250 50 0 empty empty empty 17 7 0 10 #dfdfdf #000000 #000000;
#X text 64 549 note on;
#X floatatom 226 522 5 0 0 0 - - - 0;
#X obj 166 495 stripnote;
#X floatatom 166 522 4 0 0 0 - - - 0;
#X obj 166 548 bng 20 250 50 0 empty empty empty 17 7 0 10 #dfdfdf #000000 #000000;
#X text 193 549 note on;
#X floatatom 355 522 5 0 0 0 - - - 0;
#X obj 295 495 stripnote;
#X floatatom 295 522 4 0 0 0 - - - 0;
#X obj 295 548 bng 20 250 50 0 empty empty empty 17 7 0 10 #dfdfdf #000000 #000000;
#X text 322 549 note on;
#X floatatom 496 522 5 0 0 0 - - - 0;
#X obj 436 495 stripnote;
#X floatatom 436 522 4 0 0 0 - - - 0;
#X obj 436 548 bng 20 250 50 0 empty empty empty 17 7 0 10 #dfdfdf #000000 #000000;
#X text 463 549 note on;
#X obj 166 304 notein 2;
#X obj 295 304 notein 3;
#X obj 436 304 notein 4;
#X obj 37 464 notein 5;
#X obj 166 464 notein 6;
#X obj 295 464 notein 7;
#X obj 436 464 notein 8;
#X connect 1 0 0 0;
#X connect 3 0 2 0;
#X connect 5 0 4 0;
#X connect 7 0 6 0;
#X connect 9 0 8 0;
#X connect 11 0 10 0;
#X connect 13 0 12 0;
#X connect 15 0 14 0;
#X connect 29 0 30 0;
#X connect 29 0 1 0;
#X connect 29 1 28 0;
#X connect 30 0 31 0;
#X connect 33 0 29 0;
#X connect 33 1 29 1;
#X connect 35 0 36 0;
#X connect 35 0 3 0;
#X connect 35 1 34 0;
#X connect 36 0 37 0;
#X connect 40 0 41 0;
#X connect 40 0 5 0;
#X connect 40 1 39 0;
#X connect 41 0 42 0;
#X connect 45 0 46 0;
#X connect 45 0 7 0;
#X connect 45 1 44 0;
#X connect 46 0 47 0;
#X connect 50 0 51 0;
#X connect 50 0 9 0;
#X connect 50 1 49 0;
#X connect 51 0 52 0;
#X connect 55 0 56 0;
#X connect 55 0 11 0;
#X connect 55 1 54 0;
#X connect 56 0 57 0;
#X connect 60 0 61 0;
#X connect 60 0 13 0;
#X connect 60 1 59 0;
#X connect 61 0 62 0;
#X connect 65 0 66 0;
#X connect 65 0 15 0;
#X connect 65 1 64 0;
#X connect 66 0 67 0;
#X connect 69 0 35 0;
#X connect 69 1 35 1;
#X connect 70 0 40 0;
#X connect 70 1 40 1;
#X connect 71 0 45 0;
#X connect 71 1 45 1;
#X connect 72 0 50 0;
#X connect 72 1 50 1;
#X connect 73 0 55 0;
#X connect 73 1 55 1;
#X connect 74 0 60 0;
#X connect 74 1 60 1;
#X connect 75 0 65 0;
#X connect 75 1 65 1;
#X coords 0 -1 1 1 280 200 2 20 20;
