#N canvas 187 49 1154 562 12;
#X obj 85 436 *~;
#X obj 85 469 dac~;
#X obj 24 195 vsl 19 162 0 1 0 0 empty empty empty 0 -9 0 12 #fcfcfc #000000 #000000 0 1;
#X obj 397 49 soundfiler;
#N canvas 0 22 450 278 (subpatch) 0;
#X array audioData1 30608 float 0;
#X coords 0 1 30607 -1 200 140 1;
#X restore 481 69 graph;
#X obj 130 96 tabplay~ audioData1;
#X obj 25 55 stripnote;
#X floatatom 26 149 4 0 0 0 - - - 0;
#X obj 396 269 soundfiler;
#N canvas 0 22 450 278 (subpatch) 0;
#X array audioData2 11503 float 0;
#X coords 0 1 11502 -1 200 140 1 0 0;
#X restore 478 289 graph;
#X obj 25 24 notein 5;
#X obj 130 67 sel 1;
#X obj 130 168 sel 1;
#X obj 130 197 tabplay~ audioData2;
#X obj 130 269 sel 1;
#X obj 130 298 tabplay~ audioData3;
#X obj 736 49 soundfiler;
#N canvas 0 22 450 278 (subpatch) 0;
#X array audioData3 6585 float 0;
#X coords 0 1 6584 -1 200 140 1 0 0;
#X restore 818 69 graph;
#X obj 736 269 soundfiler;
#N canvas 0 22 450 278 (subpatch) 0;
#X array audioData4 24341 float 0;
#X coords 0 1 24340 -1 200 140 1 0 0;
#X restore 818 289 graph;
#X msg 396 21 read -resize 1WSLektron9-01BD.wav audioData1;
#X msg 395 241 read -resize 2WSLektron9-02SN.wav audioData2;
#X msg 735 21 read -resize 3WSLektron9-08HH.wav audioData3;
#X msg 735 241 read -resize 4WSLektron9-09OH.wav audioData4;
#X obj 130 371 sel 1;
#X obj 130 400 tabplay~ audioData4;
#X obj 130 125 expr $f1 \; if ($f1 <60 && $f1 >=36 \, 1 \, 0 );
#X obj 130 24 expr $f1 \; if ($f1 <36 && $f1 >=12 \, 1 \, 0 );
#X obj 130 226 expr $f1 \; if ($f1 <84 && $f1 >=60 \, 1 \, 0 );
#X obj 130 328 expr $f1 \; if ($f1 <108 && $f1 >=84 \, 1 \, 0 );
#X connect 0 0 1 1;
#X connect 0 0 1 0;
#X connect 2 0 0 1;
#X connect 5 0 0 0;
#X connect 6 0 7 0;
#X connect 6 0 26 0;
#X connect 6 0 27 0;
#X connect 6 0 28 0;
#X connect 6 0 29 0;
#X connect 10 0 6 0;
#X connect 10 1 6 1;
#X connect 11 0 5 0;
#X connect 12 0 13 0;
#X connect 13 0 0 0;
#X connect 14 0 15 0;
#X connect 15 0 0 0;
#X connect 20 0 3 0;
#X connect 21 0 8 0;
#X connect 22 0 16 0;
#X connect 23 0 18 0;
#X connect 24 0 25 0;
#X connect 25 0 0 0;
#X connect 26 1 12 0;
#X connect 27 1 11 0;
#X connect 28 1 14 0;
#X connect 29 1 24 0;
